<svg enable-background="new 0 0 914 360" viewBox="0 0 914 360" xmlns="http://www.w3.org/2000/svg"><g fill="#fff"><path d="m125 168h-68v14.61h27.57v69.39h15.62v-69.39h24.81z"/><path d="m148.39 252c15.64 0 24.41-7.1 28.61-16.74l-13.73-4.82c-1.91 5.07-5.72 9.26-14.62 9.26-8.52 0-14.11-4.82-15.13-13.44h43.48v-5.32c0-18.89-10.81-30.94-28.99-30.94-17.55 0-30.01 12.93-30.01 31.44 0 18.64 11.7 30.56 30.39 30.56zm-.42-49.91c8.14 0 12.84 4.44 13.48 13.19h-27.85c1.14-8.37 6.74-13.19 14.37-13.19z"/><path d="m205.9 252c8.92 0 20.33-9.72 20.33-9.72v8.27h14.77v-38.01c0-16.38-9.68-23.55-25.56-23.55-16.5 0-26.93 9.09-27.42 22.78h14.22v-.89c.37-5.37 4.09-9.46 12.03-9.46s11.04 3.32 11.04 6.9v.59s-5.65 3.83-16.74 6.01c-13.51 2.94-23.58 6.01-23.58 19.56.01 10.49 8.04 17.52 20.91 17.52zm4.28-11.38c-5.48 0-8.67-2.81-8.67-6.9 0-5.37 4.59-7.41 10.7-8.95 4.97-1.28 10.58-2.3 14.02-4.35v5.11c-.38 11.26-8.53 15.09-16.05 15.09z"/><path d="m269.58 191.29h-15.58v60.71h16.5v-34.27c0-9.17 4.76-13.63 10.52-13.63 6.39 0 9.65 3.82 9.65 11.21v36.69h15.58v-34.27c0-8.79 3.76-13.63 10.52-13.63 6.26 0 9.65 3.82 9.65 11.85v36.05h15.58v-37.3c0-15.56-7.24-24.7-18.93-24.7-10.42 0-16.9 5.27-19.56 12.73-3.05-9.52-9.78-12.73-16.52-12.73-8.51 0-14.36 3.99-17.4 11.06z"/><path d="m371 167-16 10.24v74.76h16z"/><path d="m411.39 252c15.64 0 24.41-7.1 28.61-16.74l-13.73-4.82c-1.91 5.07-5.72 9.26-14.62 9.26-8.52 0-14.11-4.82-15.13-13.44h43.48v-5.32c0-18.89-10.81-30.94-28.99-30.94-17.55 0-30.01 12.93-30.01 31.44 0 18.64 11.7 30.56 30.39 30.56zm-.41-49.91c8.14 0 12.84 4.44 13.48 13.19h-27.85c1.15-8.37 6.74-13.19 14.37-13.19z"/><path d="m468.83 252c8.89 0 19.44-9.57 19.44-9.57v8.23h14.73v-37.46c0-16.14-9.66-23.2-25.5-23.2-16.46 0-26.86 8.95-27.36 22.45h15.11v-.88c.37-5.29 4.08-9.32 12-9.32s11.01 3.27 11.01 6.8v.5s-5.73 3.78-16.78 5.92c-13.46 2.9-23.49 5.92-23.49 19.28.01 10.32 8.01 17.25 20.84 17.25zm3.42-11.13c-5.47 0-8.64-2.77-8.64-6.8 0-5.29 4.58-7.31 10.68-8.82 4.96-1.26 10.55-2.27 13.99-4.28v5.04c-.39 11.09-8.53 14.86-16.03 14.86z"/><path d="m540.37 252c7.66 0 12.91-3.4 17.05-8.94v7.68h15.58v-84.74l-15.58 10.18v21.77c-4.14-5.54-9.39-7.91-16.92-7.91-15.07 0-26.5 12.34-26.5 31.23 0 19.4 11.55 30.73 26.37 30.73zm3.31-12.66c-8.92 0-14.66-5.84-14.66-17.64v-.89c0-11.8 5.99-18.27 14.66-18.27 9.31 0 14.66 6.85 14.66 17.64v1.02c0 10.78-5.61 18.14-14.66 18.14z"/><path d="m614.39 252c15.64 0 24.41-7.1 28.61-16.74l-13.73-4.82c-1.91 5.07-5.72 9.26-14.62 9.26-8.52 0-14.11-4.82-15.13-13.44h43.48v-5.32c0-18.89-10.81-30.94-28.99-30.94-17.55 0-30.01 12.93-30.01 31.44 0 18.64 11.7 30.56 30.39 30.56zm-.57-49.91c8.14 0 12.84 4.44 13.48 13.19h-27.85c1.14-8.37 6.74-13.19 14.37-13.19z"/><path d="m670 191h-16v61h16v-30.4c0-11.03 2.61-15.6 11.92-15.6h6.08v-16h-1.24c-10.8 0-15.14 5.11-16.76 12.37z"/><path d="m752.7 228.35-41.64-67.41h41.64z"/><path d="m752.7 155.76h-98.9l98.9-67.41z"/><path d="m818.77 186.87-60.86 41.48v-140z"/><path d="m808.86 160.94 14.2 22.99 33.73-22.99z"/></g></svg>